<svg t="1535972510772" class="icon" viewBox="0 0 1024 1024" version="1.1" xmlns="http://www.w3.org/2000/svg" p-id="1685" height="32" width="32"><path d="M589.703529 501.67395l408.567395-408.567395c20.652101-20.652101 20.652101-54.555966 0-75.208068l-2.237311-2.237311c-20.652101-20.652101-54.555966-20.652101-75.208067 0L512.258151 424.744874l-408.567395-409.255798c-20.652101-20.652101-54.555966-20.652101-75.208067 0l-2.237311 2.237311c-21.168403 20.652101-21.168403 54.555966 0 75.208067L434.812773 501.67395l-408.567395 408.567395c-20.652101 20.652101-20.652101 54.555966 0 75.208067l2.237311 2.237311c20.652101 20.652101 54.555966 20.652101 75.208067 0L512.258151 579.119328l408.567395 408.567395c20.652101 20.652101 54.555966 20.652101 75.208067 0l2.237311-2.237311c20.652101-20.652101 20.652101-54.555966 0-75.208067L589.703529 501.67395z" fill="#515151" p-id="1686"></path></svg>